<?xml version="1.0" encoding="UTF-8" standalone="no"?>
<!-- Created with Inkscape (http://www.inkscape.org/) -->

<svg
   width="1273.4299"
   height="302.36221"
   viewBox="0 0 346.08523 82.174213"
   version="1.1"
   id="svg1"
   inkscape:version="1.4.3 (0d15f75042, 2025-12-25)"
   sodipodi:docname="Logo_Main.svg"
   inkscape:export-filename="Logo_simple_gray_icon.png"
   inkscape:export-xdpi="130.048"
   inkscape:export-ydpi="130.048"
   xmlns:inkscape="http://www.inkscape.org/namespaces/inkscape"
   xmlns:sodipodi="http://sodipodi.sourceforge.net/DTD/sodipodi-0.dtd"
   xmlns:xlink="http://www.w3.org/1999/xlink"
   xmlns="http://www.w3.org/2000/svg"
   xmlns:svg="http://www.w3.org/2000/svg">
  <sodipodi:namedview
     id="namedview1"
     pagecolor="#ffffff"
     bordercolor="#999999"
     borderopacity="1"
     inkscape:showpageshadow="2"
     inkscape:pageopacity="0"
     inkscape:pagecheckerboard="0"
     inkscape:deskcolor="#d1d1d1"
     inkscape:document-units="mm"
     inkscape:lockguides="false"
     showgrid="true"
     inkscape:zoom="0.42143779"
     inkscape:cx="28.473954"
     inkscape:cy="227.79163"
     inkscape:window-width="1745"
     inkscape:window-height="911"
     inkscape:window-x="0"
     inkscape:window-y="0"
     inkscape:window-maximized="1"
     inkscape:current-layer="layer1">
    <inkscape:page
       x="0"
       y="0"
       width="346.08524"
       height="82.17421"
       id="page1"
       margin="0"
       bleed="0" />
    <inkscape:page
       x="-335.88867"
       y="-102.91658"
       width="278.29663"
       height="278.29666"
       id="page2"
       margin="0"
       bleed="0" />
  </sodipodi:namedview>
  <defs
     id="defs1">
    <linearGradient
       id="linearGradient1"
       inkscape:collect="always">
      <stop
         style="stop-color:#8adcc3;stop-opacity:0.59685699;"
         offset="0"
         id="stop1" />
      <stop
         style="stop-color:#8adcc3;stop-opacity:0;"
         offset="1"
         id="stop2" />
    </linearGradient>
    <rect
       x="380.62585"
       y="4.897759"
       width="618.51697"
       height="225.29691"
       id="rect2" />
    <inkscape:path-effect
       effect="fillet_chamfer"
       id="path-effect25"
       is_visible="true"
       lpeversion="1"
       nodesatellites_param="IF,0,0,1,0,1.0870963,0,1 @ IF,0,0,1,0,1.0870963,0,1 @ IF,0,0,1,0,1.0870963,0,1 @ IF,0,0,1,0,1.0870963,0,1"
       radius="4"
       unit="px"
       method="auto"
       mode="F"
       chamfer_steps="1"
       flexible="false"
       use_knot_distance="true"
       apply_no_radius="true"
       apply_with_radius="true"
       only_selected="false"
       hide_knots="false" />
    <inkscape:path-effect
       effect="fillet_chamfer"
       id="path-effect24"
       is_visible="true"
       lpeversion="1"
       nodesatellites_param="IF,0,0,1,0,1.0870963,0,1 @ IF,0,0,1,0,1.0870963,0,1 @ IF,0,0,1,0,1.0870963,0,1 @ IF,0,0,1,0,1.0870963,0,1"
       radius="4"
       unit="px"
       method="auto"
       mode="F"
       chamfer_steps="1"
       flexible="false"
       use_knot_distance="true"
       apply_no_radius="true"
       apply_with_radius="true"
       only_selected="false"
       hide_knots="false" />
    <inkscape:path-effect
       effect="fillet_chamfer"
       id="path-effect23"
       is_visible="true"
       lpeversion="1"
       nodesatellites_param="IF,0,0,1,0,1.0870963,0,1 @ IF,0,0,1,0,1.0870963,0,1 @ IF,0,0,1,0,1.0870963,0,1 @ IF,0,0,1,0,1.0870963,0,1"
       radius="4"
       unit="px"
       method="auto"
       mode="F"
       chamfer_steps="1"
       flexible="false"
       use_knot_distance="true"
       apply_no_radius="true"
       apply_with_radius="true"
       only_selected="false"
       hide_knots="false" />
    <inkscape:path-effect
       effect="fillet_chamfer"
       id="path-effect22"
       is_visible="true"
       lpeversion="1"
       nodesatellites_param="F,0,0,1,0,2.7177407,0,1 @ F,0,0,1,0,2.7177407,0,1 @ F,0,0,1,0,2.7177407,0,1 @ F,0,0,1,0,2.7177407,0,1"
       radius="10"
       unit="px"
       method="auto"
       mode="F"
       chamfer_steps="1"
       flexible="false"
       use_knot_distance="true"
       apply_no_radius="true"
       apply_with_radius="true"
       only_selected="false"
       hide_knots="false" />
    <inkscape:path-effect
       effect="fillet_chamfer"
       id="path-effect21"
       is_visible="true"
       lpeversion="1"
       nodesatellites_param="F,0,0,1,0,2.7177407,0,1 @ F,0,0,1,0,2.7177407,0,1 @ F,0,0,1,0,2.7177407,0,1 @ F,0,0,1,0,2.7177407,0,1"
       radius="10"
       unit="px"
       method="auto"
       mode="F"
       chamfer_steps="1"
       flexible="false"
       use_knot_distance="true"
       apply_no_radius="true"
       apply_with_radius="true"
       only_selected="false"
       hide_knots="false" />
    <inkscape:path-effect
       effect="fillet_chamfer"
       id="path-effect20"
       is_visible="true"
       lpeversion="1"
       nodesatellites_param="F,0,0,1,0,2.7177407,0,1 @ F,0,0,1,0,2.7177407,0,1 @ F,0,0,1,0,2.7177407,0,1 @ F,0,0,1,0,2.7177407,0,1"
       radius="10"
       unit="px"
       method="auto"
       mode="F"
       chamfer_steps="1"
       flexible="false"
       use_knot_distance="true"
       apply_no_radius="true"
       apply_with_radius="true"
       only_selected="false"
       hide_knots="false" />
    <inkscape:path-effect
       effect="fillet_chamfer"
       id="path-effect4"
       is_visible="true"
       lpeversion="1"
       nodesatellites_param="F,0,0,1,0,0,0,1 @ F,0,0,1,0,0,0,1 @ F,0,0,1,0,0,0,1 @ F,0,0,1,0,0,0,1 @ F,0,0,1,0,0,0,1 @ F,0,0,1,0,0,0,1 @ F,0,0,1,0,0,0,1 @ F,0,0,1,0,0,0,1"
       radius="0"
       unit="px"
       method="arc"
       mode="F"
       chamfer_steps="1"
       flexible="false"
       use_knot_distance="true"
       apply_no_radius="true"
       apply_with_radius="true"
       only_selected="false"
       hide_knots="false" />
    <inkscape:path-effect
       effect="fillet_chamfer"
       id="path-effect3"
       is_visible="true"
       lpeversion="1"
       nodesatellites_param="F,0,0,1,0,0,0,1 @ F,0,0,1,0,0,0,1 @ F,0,0,1,0,0,0,1 @ F,0,0,1,0,0,0,1"
       radius="0"
       unit="px"
       method="auto"
       mode="F"
       chamfer_steps="1"
       flexible="false"
       use_knot_distance="true"
       apply_no_radius="true"
       apply_with_radius="true"
       only_selected="false"
       hide_knots="false" />
    <linearGradient
       inkscape:collect="always"
       xlink:href="#linearGradient1"
       id="linearGradient2"
       x1="382.78497"
       y1="69.034081"
       x2="862.42517"
       y2="69.034081"
       gradientUnits="userSpaceOnUse" />
    <symbol
       id="symbol9">
      <use
         x="0"
         y="0"
         xlink:href="#g5"
         id="use9"
         transform="matrix(-0.29527559,0,0,0.29527559,-50.749158,-8.2963059)" />
    </symbol>
  </defs>
  <g
     inkscape:label="Ebene 1"
     inkscape:groupmode="layer"
     id="layer1"
     transform="translate(181.19749,-140.21348)"
     style="display:inline">
    <path
       d="m -88.032967,213.29105 h 1.53462 v -6.27798 h 5.54057 v -1.33532 h -5.54057 v -4.98252 h 8.45036 v -1.35525 h -9.98498 z m 14.36962,0.1993 c 2.85,0 5.1021,-2.27203 5.1021,-5.18183 0,-2.90979 -2.2521,-5.18182 -5.1021,-5.18182 -2.85001,0 -5.10211,2.27203 -5.10211,5.18182 0,2.9098 2.2521,5.18183 5.10211,5.18183 z m 0,-1.31539 c -2.03287,0 -3.64721,-1.69405 -3.64721,-3.86644 0,-2.17238 1.61434,-3.86643 3.64721,-3.86643 2.03287,0 3.64721,1.69405 3.64721,3.86643 0,2.17239 -1.61434,3.86644 -3.64721,3.86644 z m 11.77871,1.29546 c 1.43496,0 2.81014,-0.57797 3.86644,-1.59441 l -0.91679,-0.9965 c -0.85699,0.83706 -1.83357,1.25559 -2.90979,1.25559 -2.0528,0 -3.66714,-1.67412 -3.66714,-3.84651 0,-2.13252 1.59441,-3.82657 3.64721,-3.82657 1.07622,0 2.15245,0.45839 2.94965,1.29545 l 0.93672,-1.07622 c -1.03637,-0.99651 -2.45141,-1.57448 -3.9063,-1.57448 -2.85001,0 -5.08218,2.29196 -5.08218,5.18182 0,2.9098 2.23217,5.18183 5.08218,5.18183 z m 9.42694,0.0199 c 1.29546,0 2.35175,-0.45839 3.12903,-1.35525 v 1.15595 h 1.47482 v -9.98498 h -1.47482 v 7.33428 c -0.59791,0.9965 -1.55455,1.55454 -2.75036,1.55454 -1.71398,0 -2.79021,-1.09615 -2.79021,-2.86993 v -6.01889 h -1.4549 v 6.31784 c 0,2.29196 1.57448,3.86644 3.86644,3.86644 z m 10.30386,0 c 2.29196,0 4.04581,-1.31539 4.04581,-3.0493 0,-1.55455 -0.9965,-2.45141 -2.98951,-2.73043 l -1.73392,-0.23916 c -1.31539,-0.17937 -1.8535,-0.61783 -1.8535,-1.51469 0,-0.97657 0.93671,-1.6542 2.31189,-1.6542 1.09616,0 2.11259,0.35875 3.22868,1.11609 l 0.77727,-0.9965 c -1.23566,-0.89686 -2.47133,-1.31539 -3.92623,-1.31539 -2.19231,0 -3.74686,1.23566 -3.74686,2.90979 0,1.55455 0.95665,2.45141 2.94966,2.73043 l 1.73392,0.23916 c 1.27552,0.17937 1.8535,0.65769 1.8535,1.53462 0,1.05629 -1.11609,1.7937 -2.7105,1.7937 -1.17587,0 -2.33182,-0.47832 -3.2486,-1.33531 l -0.89686,0.95664 c 1.0563,0.99651 2.55105,1.55455 4.20525,1.55455 z m 14.62868,0 c 2.85,0 5.1021,-2.27203 5.1021,-5.18183 0,-2.90979 -2.2521,-5.18182 -5.1021,-5.18182 -2.85001,0 -5.10211,2.27203 -5.10211,5.18182 0,2.9098 2.2521,5.18183 5.10211,5.18183 z m 0,-1.31539 c -2.03287,0 -3.64721,-1.69405 -3.64721,-3.86644 0,-2.17238 1.61434,-3.86643 3.64721,-3.86643 2.03287,0 3.64721,1.69405 3.64721,3.86643 0,2.17239 -1.61434,3.86644 -3.64721,3.86644 z m 7.15493,1.11609 h 1.47482 v -7.35421 c 0.59791,-0.97657 1.55455,-1.53461 2.75036,-1.53461 1.71399,0 2.79021,1.09615 2.79021,2.86993 v 6.01889 h 1.4549 v -6.31784 c 0,-2.29196 -1.57448,-3.86644 -3.84651,-3.86644 -1.29546,0 -2.37168,0.45839 -3.14896,1.37518 v -1.17588 h -1.47482 z m 17.0601605,0 h 1.43497 l 2.49125999,-7.99197 2.47133001,7.99197 h 1.41504 l 2.8300701,-9.98498 H 5.9374935 l -2.17238,7.97204 -2.47133,-7.97204 h -1.31539001 l -2.49125999,7.97204 -2.15245,-7.97204 h -1.4549 z m 12.1772701,0 h 1.4748304 v -7.35421 c 0.5979,-0.97657 1.55455,-1.53461 2.75035,-1.53461 1.71399,0 2.79022,1.09615 2.79022,2.86993 v 6.01889 h 1.45489 v -6.31784 c 0,-2.29196 -1.57447,-3.86644 -3.84651,-3.86644 -1.29545,0 -2.37168,0.45839 -3.14895,1.37518 v -5.48078 l -1.4748304,0.33881 z m 14.0905794,0.17937 c 1.25559,0 2.33182,-0.37867 3.22867,-1.15595 v 0.97658 h 1.43497 v -6.71644 c 0,-2.23218 -1.41504,-3.46784 -3.94616,-3.46784 -1.21574,0 -2.39161,0.29895 -3.826579,0.9965 l 0.55804,1.13602 c 1.195809,-0.61783 2.152449,-0.87693 3.129029,-0.87693 1.73392,0 2.6507,0.81714 2.6507,2.41155 v 1.31538 c -0.85699,-0.43846 -1.87343,-0.67762 -2.92972,-0.67762 -2.451399,0 -3.986019,1.17588 -3.986019,3.04931 0,1.7937 1.49476,3.00944 3.687069,3.00944 z m -2.272039,-3.0493 c 0,-1.17588 1.016439,-1.93322 2.610849,-1.93322 1.15594,0 2.07273,0.23916 2.88986,0.7972 v 1.87343 c -0.7972,0.7972 -1.77378,1.15594 -2.96958,1.15594 -1.49476,0 -2.531129,-0.77727 -2.531129,-1.89335 z m 13.034319,3.06923 c 0.57797,0 1.23566,-0.0797 1.75385,-0.25909 v -1.29546 c -0.49826,0.1993 -0.89686,0.25909 -1.4549,0.25909 -1.09616,0 -1.53462,-0.41853 -1.53462,-1.49475 v -6.13847 h 3.00945 v -1.2556 h -3.00945 v -2.90979 l -1.4549,0.37867 v 2.53112 h -2.15245 v 1.2556 h 2.15245 v 6.51714 c 0,1.57448 0.95665,2.41154 2.69057,2.41154 z m 7.63323,-0.1993 h 1.47483 V 206.455 c 0.51818,-1.33532 1.4549,-2.0528 2.69056,-2.0528 0.33881,0 0.67763,0.0598 1.03637,0.17937 v -1.35525 c -0.29895,-0.0996 -0.55804,-0.13951 -0.93672,-0.13951 -1.21573,0 -2.19231,0.5979 -2.79021,1.63427 v -1.41504 h -1.47483 z m 10.88185,0.17937 c 1.43497,0 2.61084,-0.3986 3.72693,-1.23567 l -0.91679,-0.97657 c -0.67762,0.57797 -1.71399,0.91678 -2.75035,0.91678 -1.97308,0 -3.52763,-1.45489 -3.74686,-3.42797 h 8.19127 v -0.4584 c 0,-2.86993 -2.07273,-5.14196 -4.72343,-5.14196 -2.75036,0 -4.92274,2.27203 -4.92274,5.14196 0,2.92973 2.2521,5.18183 5.14197,5.18183 z m -3.64721,-5.89931 c 0.27902,-1.83357 1.6542,-3.12902 3.38812,-3.12902 1.6542,0 3.02937,1.35524 3.28846,3.12902 z m 13.15385,5.89931 c 1.2556,0 2.33182,-0.37867 3.22868,-1.15595 v 0.97658 h 1.43496 v -6.71644 c 0,-2.23218 -1.41503,-3.46784 -3.94616,-3.46784 -1.21573,0 -2.39161,0.29895 -3.82658,0.9965 l 0.55805,1.13602 c 1.1958,-0.61783 2.15245,-0.87693 3.12902,-0.87693 1.73392,0 2.65071,0.81714 2.65071,2.41155 v 1.31538 c -0.857,-0.43846 -1.87343,-0.67762 -2.92973,-0.67762 -2.4514,0 -3.98602,1.17588 -3.98602,3.04931 0,1.7937 1.49476,3.00944 3.68707,3.00944 z m -2.27203,-3.0493 c 0,-1.17588 1.01643,-1.93322 2.61084,-1.93322 1.15595,0 2.07273,0.23916 2.88987,0.7972 v 1.87343 c -0.79721,0.7972 -1.77378,1.15594 -2.96959,1.15594 -1.49476,0 -2.53112,-0.77727 -2.53112,-1.89335 z m 9.40701,2.86993 h 1.47483 v -14.28988 l -1.47483,0.33881 z m 3.98604,0 h 1.47483 v -14.28988 l -1.47483,0.33881 z m 4.40457,4.26504 c 1.59441,0 2.55105,-0.77727 3.38812,-2.71049 l 4.98252,-11.53953 h -1.59441 l -3.48776,8.19127 -3.22868,-8.19127 h -1.63427 l 4.06574,9.96505 -0.5979,1.37518 c -0.45839,1.05629 -1.09616,1.55454 -1.99301,1.55454 -0.35874,0 -0.57797,-0.0199 -0.83707,-0.0797 v 1.33532 c 0.21924,0.0598 0.55805,0.0996 0.93672,0.0996 z m 14.03079,-4.26504 h 1.47483 v -7.43393 c 0.61783,-0.95664 1.47483,-1.45489 2.55105,-1.45489 1.57448,0 2.570993,1.09615 2.570993,2.86993 v 6.01889 h 1.45489 v -6.31784 c 0,-0.33881 -0.0399,-0.63777 -0.0996,-0.93672 0.63777,-1.07622 1.554554,-1.63426 2.650714,-1.63426 1.5944,0 2.59091,1.09615 2.59091,2.86993 v 6.01889 h 1.4549 v -6.31784 c 0,-2.29196 -1.49476,-3.86644 -3.66714,-3.86644 -1.4549,0 -2.610854,0.5979 -3.427984,1.81364 -0.61783,-1.11609 -1.753853,-1.81364 -3.148963,-1.81364 -1.1958,0 -2.17238,0.43846 -2.92972,1.29546 v -1.09616 h -1.47483 z m 20.268917,0.17937 c 1.25559,0 2.33182,-0.37867 3.22867,-1.15595 v 0.97658 h 1.43497 v -6.71644 c 0,-2.23218 -1.41504,-3.46784 -3.94616,-3.46784 -1.21574,0 -2.39161,0.29895 -3.82658,0.9965 l 0.55804,1.13602 c 1.19581,-0.61783 2.15246,-0.87693 3.12903,-0.87693 1.73392,0 2.6507,0.81714 2.6507,2.41155 v 1.31538 c -0.85699,-0.43846 -1.87343,-0.67762 -2.92972,-0.67762 -2.4514,0 -3.98602,1.17588 -3.98602,3.04931 0,1.7937 1.49476,3.00944 3.68707,3.00944 z m -2.27203,-3.0493 c 0,-1.17588 1.01643,-1.93322 2.61084,-1.93322 1.15594,0 2.07273,0.23916 2.88986,0.7972 v 1.87343 c -0.7972,0.7972 -1.77378,1.15594 -2.96958,1.15594 -1.49476,0 -2.53112,-0.77727 -2.53112,-1.89335 z m 13.0343,3.06923 c 0.57797,0 1.23567,-0.0797 1.75385,-0.25909 v -1.29546 c -0.49825,0.1993 -0.89685,0.25909 -1.4549,0.25909 -1.09615,0 -1.53461,-0.41853 -1.53461,-1.49475 v -6.13847 h 3.00944 v -1.2556 h -3.00944 v -2.90979 l -1.4549,0.37867 v 2.53112 h -2.15245 v 1.2556 h 2.15245 v 6.51714 c 0,1.57448 0.95664,2.41154 2.69056,2.41154 z m 7.47379,0 c 0.57797,0 1.23566,-0.0797 1.75385,-0.25909 v -1.29546 c -0.49826,0.1993 -0.89686,0.25909 -1.4549,0.25909 -1.09616,0 -1.53462,-0.41853 -1.53462,-1.49475 v -6.13847 h 3.00945 v -1.2556 h -3.00945 v -2.90979 l -1.4549,0.37867 v 2.53112 h -2.15245 v 1.2556 h 2.15245 v 6.51714 c 0,1.57448 0.95665,2.41154 2.69057,2.41154 z m 7.83252,-0.0199 c 1.43497,0 2.61084,-0.3986 3.72693,-1.23567 l -0.91678,-0.97657 c -0.67763,0.57797 -1.71399,0.91678 -2.75036,0.91678 -1.97308,0 -3.52763,-1.45489 -3.74686,-3.42797 h 8.19127 v -0.4584 c 0,-2.86993 -2.07273,-5.14196 -4.72343,-5.14196 -2.75035,0 -4.92273,2.27203 -4.92273,5.14196 0,2.92973 2.2521,5.18183 5.14196,5.18183 z m -3.64721,-5.89931 c 0.27902,-1.83357 1.6542,-3.12902 3.38812,-3.12902 1.6542,0 3.02937,1.35524 3.28847,3.12902 z m 10.20419,5.71994 h 1.47483 v -6.83602 c 0.51818,-1.33532 1.4549,-2.0528 2.69056,-2.0528 0.33881,0 0.67763,0.0598 1.03637,0.17937 v -1.35525 c -0.29895,-0.0996 -0.55804,-0.13951 -0.93672,-0.13951 -1.21573,0 -2.19231,0.5979 -2.79021,1.63427 v -1.41504 h -1.47483 z m 9.98502,0.1993 c 2.29196,0 4.04581,-1.31539 4.04581,-3.0493 0,-1.55455 -0.9965,-2.45141 -2.98951,-2.73043 l -1.73392,-0.23916 c -1.31539,-0.17937 -1.8535,-0.61783 -1.8535,-1.51469 0,-0.97657 0.93671,-1.6542 2.31189,-1.6542 1.09616,0 2.11259,0.35875 3.22868,1.11609 l 0.77727,-0.9965 c -1.23567,-0.89686 -2.47133,-1.31539 -3.92623,-1.31539 -2.19231,0 -3.74686,1.23566 -3.74686,2.90979 0,1.55455 0.95665,2.45141 2.94966,2.73043 l 1.73392,0.23916 c 1.27552,0.17937 1.8535,0.65769 1.8535,1.53462 0,1.05629 -1.11609,1.7937 -2.7105,1.7937 -1.17587,0 -2.33182,-0.47832 -3.2486,-1.33531 l -0.89686,0.95664 c 1.0563,0.99651 2.55105,1.55455 4.20525,1.55455 z"
       id="text3"
       style="font-size:19.9301px;font-family:'Red Hat Display';-inkscape-font-specification:'Red Hat Display, Normal';fill:#1a629b;fill-opacity:1;stroke-width:0.271774"
       aria-label="Focus on what really matters"
       inkscape:label="Untertext" />
    <text
       xml:space="preserve"
       transform="matrix(0.54545057,0,0,0.54545057,-305.52267,128.43269)"
       id="text1"
       style="font-style:normal;font-variant:normal;font-weight:798;font-stretch:normal;font-size:120px;font-family:'Red Hat Display';-inkscape-font-specification:'Red Hat Display, weight=798';font-variant-ligatures:normal;font-variant-caps:normal;font-variant-numeric:normal;font-variant-east-asian:normal;writing-mode:lr-tb;direction:ltr;white-space:pre;shape-inside:url(#rect2);display:inline;fill:#003257;fill-opacity:1"
       inkscape:label="Haupttext"><tspan
         x="380.625"
         y="112.23404"
         id="tspan2">TeachBx</tspan></text>
    <g
       id="g5"
       inkscape:label="LogoGruppe"
       transform="matrix(2.8266518,0,0,2.6466498,-360.61809,293.85221)"
       style="display:inline;fill:#ffffff;fill-opacity:1">
      <path
         id="rect3"
         d="m -49.872678,-93.580276 h 82.174207 c 5.690566,0 10.271774,4.581212 10.271774,10.271774 v 82.1742173 c 0,5.690564 -4.581208,10.27177 -10.271774,10.27177 h -82.174207 c -5.690565,0 -10.271777,-4.581206 -10.271777,-10.27177 V -83.308502 c 0,-5.690562 4.581212,-10.271774 10.271777,-10.271774 z"
         style="display:inline;fill:#34618e;fill-opacity:1;stroke:none;stroke-width:0.209128;stroke-linejoin:round;stroke-dasharray:none;stroke-opacity:1"
         inkscape:label="PrimaryBackround"
         transform="matrix(0.95849562,0,0,1.0236841,2.2936329,-1.1392301)" />
      <g
         id="g3"
         transform="translate(12.387758)"
         inkscape:label="Ordner">
        <g
           id="g4"
           inkscape:label="Ordner1"
           transform="translate(-66.697645,-93.041096)"
           style="fill:#ffffff;fill-opacity:1">
          <path
             id="rect4"
             style="fill:#ffffff;fill-opacity:1;stroke-width:0.221733;stroke-dasharray:none"
             inkscape:label="Rechteck mit Ausschnitten"
             d="M 8.7008362,6.9661715 A 1.0870963,1.0870963 0 0 1 7.6139595,8.0529325 V 89.30801 a 1.0870963,1.0870963 0 0 1 1.0868767,1.086761 H 32.31894 A 1.0870963,1.0870963 0 0 1 33.406452,89.30801 V 8.0529325 A 1.0870963,1.0870963 0 0 1 32.31894,6.9661715 Z m 2.8288048,3.8586805 h 17.96113 c 1.771187,0 3.216748,1.956645 3.216748,4.35044 v 40.896852 c 0,2.393796 -1.445561,4.35044 -3.216748,4.35044 h -17.96113 c -1.7711873,0 -3.2167481,-1.956644 -3.2167479,-4.35044 V 15.175292 c 4e-7,-2.393795 1.445561,-4.35044 3.2167479,-4.35044 z m 0,1.351659 c -1.230747,0 -2.2163632,1.335402 -2.2163635,2.998781 v 40.896852 c -2e-7,1.66338 0.9856165,2.998781 2.2163635,2.998781 h 17.96113 c 1.230747,0 2.216999,-1.335401 2.216999,-2.998781 V 15.175292 c 0,-1.663379 -0.986252,-2.998781 -2.216999,-2.998781 z m 8.880717,61.265469 c 0.170968,-0.0069 0.341838,-0.0062 0.512594,0.0027 0.910697,0.04748 1.809585,0.323875 2.602399,0.870767 1.569733,0.975307 2.587376,2.754914 2.631653,4.602433 l 0.0025,0.17524 c 0.04692,2.58986 -1.920674,5.025367 -4.462618,5.523462 -3.724482,0.942384 -7.610663,-2.737235 -6.745122,-6.534829 0.375288,-2.682717 2.894037,-4.535975 5.45855,-4.63979 z" />
        </g>
        <use
           x="0"
           y="0"
           xlink:href="#g4"
           id="use2"
           inkscape:label="Ordner 2"
           transform="translate(27.672434)" />
        <use
           x="0"
           y="0"
           xlink:href="#use2"
           id="use3"
           inkscape:label="Ordner 3"
           transform="translate(27.672435)" />
      </g>
    </g>
    <use
       xlink:href="#symbol9"
       id="use10"
       transform="translate(-200.95704,137.49692)"
       style="stroke:#ffffff"
       inkscape:label="LogoTextzug" />
  </g>
</svg>
