<?xml version="1.0" encoding="UTF-8" standalone="no"?>
<!-- Created with Inkscape (http://www.inkscape.org/) -->

<svg
   width="1200"
   height="300"
   viewBox="0 0 326.12888 81.532225"
   version="1.1"
   id="svg1"
   inkscape:version="1.4.3 (0d15f75042, 2025-12-25)"
   sodipodi:docname="Logo_main.svg"
   inkscape:export-filename="Logo_simple_gray_icon.png"
   inkscape:export-xdpi="130.048"
   inkscape:export-ydpi="130.048"
   xml:space="preserve"
   xmlns:inkscape="http://www.inkscape.org/namespaces/inkscape"
   xmlns:sodipodi="http://sodipodi.sourceforge.net/DTD/sodipodi-0.dtd"
   xmlns:xlink="http://www.w3.org/1999/xlink"
   xmlns="http://www.w3.org/2000/svg"
   xmlns:svg="http://www.w3.org/2000/svg"><sodipodi:namedview
     id="namedview1"
     pagecolor="#ffffff"
     bordercolor="#999999"
     borderopacity="1"
     inkscape:showpageshadow="2"
     inkscape:pageopacity="0"
     inkscape:pagecheckerboard="0"
     inkscape:deskcolor="#d1d1d1"
     inkscape:document-units="mm"
     inkscape:lockguides="false"
     showgrid="true"
     inkscape:zoom="0.2429338"
     inkscape:cx="174.94478"
     inkscape:cy="127.60678"
     inkscape:window-width="1745"
     inkscape:window-height="911"
     inkscape:window-x="0"
     inkscape:window-y="0"
     inkscape:window-maximized="1"
     inkscape:current-layer="layer1"><inkscape:page
       x="0"
       y="0"
       width="326.12888"
       height="81.532227"
       id="page1"
       margin="0"
       bleed="0" /><inkscape:page
       x="-312.98529"
       y="-86.017365"
       width="278.29663"
       height="278.29666"
       id="page2"
       margin="0"
       bleed="0" /></sodipodi:namedview><defs
     id="defs1"><linearGradient
       id="linearGradient1"
       inkscape:collect="always"><stop
         style="stop-color:#8adcc3;stop-opacity:0.59685699;"
         offset="0"
         id="stop1" /><stop
         style="stop-color:#8adcc3;stop-opacity:0;"
         offset="1"
         id="stop2" /></linearGradient><rect
       x="380.62585"
       y="4.897759"
       width="618.51697"
       height="225.29691"
       id="rect2" /><inkscape:path-effect
       effect="fillet_chamfer"
       id="path-effect25"
       is_visible="true"
       lpeversion="1"
       nodesatellites_param="IF,0,0,1,0,1.0870963,0,1 @ IF,0,0,1,0,1.0870963,0,1 @ IF,0,0,1,0,1.0870963,0,1 @ IF,0,0,1,0,1.0870963,0,1"
       radius="4"
       unit="px"
       method="auto"
       mode="F"
       chamfer_steps="1"
       flexible="false"
       use_knot_distance="true"
       apply_no_radius="true"
       apply_with_radius="true"
       only_selected="false"
       hide_knots="false" /><inkscape:path-effect
       effect="fillet_chamfer"
       id="path-effect24"
       is_visible="true"
       lpeversion="1"
       nodesatellites_param="IF,0,0,1,0,1.0870963,0,1 @ IF,0,0,1,0,1.0870963,0,1 @ IF,0,0,1,0,1.0870963,0,1 @ IF,0,0,1,0,1.0870963,0,1"
       radius="4"
       unit="px"
       method="auto"
       mode="F"
       chamfer_steps="1"
       flexible="false"
       use_knot_distance="true"
       apply_no_radius="true"
       apply_with_radius="true"
       only_selected="false"
       hide_knots="false" /><inkscape:path-effect
       effect="fillet_chamfer"
       id="path-effect23"
       is_visible="true"
       lpeversion="1"
       nodesatellites_param="IF,0,0,1,0,1.0870963,0,1 @ IF,0,0,1,0,1.0870963,0,1 @ IF,0,0,1,0,1.0870963,0,1 @ IF,0,0,1,0,1.0870963,0,1"
       radius="4"
       unit="px"
       method="auto"
       mode="F"
       chamfer_steps="1"
       flexible="false"
       use_knot_distance="true"
       apply_no_radius="true"
       apply_with_radius="true"
       only_selected="false"
       hide_knots="false" /><inkscape:path-effect
       effect="fillet_chamfer"
       id="path-effect22"
       is_visible="true"
       lpeversion="1"
       nodesatellites_param="F,0,0,1,0,2.7177407,0,1 @ F,0,0,1,0,2.7177407,0,1 @ F,0,0,1,0,2.7177407,0,1 @ F,0,0,1,0,2.7177407,0,1"
       radius="10"
       unit="px"
       method="auto"
       mode="F"
       chamfer_steps="1"
       flexible="false"
       use_knot_distance="true"
       apply_no_radius="true"
       apply_with_radius="true"
       only_selected="false"
       hide_knots="false" /><inkscape:path-effect
       effect="fillet_chamfer"
       id="path-effect21"
       is_visible="true"
       lpeversion="1"
       nodesatellites_param="F,0,0,1,0,2.7177407,0,1 @ F,0,0,1,0,2.7177407,0,1 @ F,0,0,1,0,2.7177407,0,1 @ F,0,0,1,0,2.7177407,0,1"
       radius="10"
       unit="px"
       method="auto"
       mode="F"
       chamfer_steps="1"
       flexible="false"
       use_knot_distance="true"
       apply_no_radius="true"
       apply_with_radius="true"
       only_selected="false"
       hide_knots="false" /><inkscape:path-effect
       effect="fillet_chamfer"
       id="path-effect20"
       is_visible="true"
       lpeversion="1"
       nodesatellites_param="F,0,0,1,0,2.7177407,0,1 @ F,0,0,1,0,2.7177407,0,1 @ F,0,0,1,0,2.7177407,0,1 @ F,0,0,1,0,2.7177407,0,1"
       radius="10"
       unit="px"
       method="auto"
       mode="F"
       chamfer_steps="1"
       flexible="false"
       use_knot_distance="true"
       apply_no_radius="true"
       apply_with_radius="true"
       only_selected="false"
       hide_knots="false" /><inkscape:path-effect
       effect="fillet_chamfer"
       id="path-effect4"
       is_visible="true"
       lpeversion="1"
       nodesatellites_param="F,0,0,1,0,0,0,1 @ F,0,0,1,0,0,0,1 @ F,0,0,1,0,0,0,1 @ F,0,0,1,0,0,0,1 @ F,0,0,1,0,0,0,1 @ F,0,0,1,0,0,0,1 @ F,0,0,1,0,0,0,1 @ F,0,0,1,0,0,0,1"
       radius="0"
       unit="px"
       method="arc"
       mode="F"
       chamfer_steps="1"
       flexible="false"
       use_knot_distance="true"
       apply_no_radius="true"
       apply_with_radius="true"
       only_selected="false"
       hide_knots="false" /><inkscape:path-effect
       effect="fillet_chamfer"
       id="path-effect3"
       is_visible="true"
       lpeversion="1"
       nodesatellites_param="F,0,0,1,0,0,0,1 @ F,0,0,1,0,0,0,1 @ F,0,0,1,0,0,0,1 @ F,0,0,1,0,0,0,1"
       radius="0"
       unit="px"
       method="auto"
       mode="F"
       chamfer_steps="1"
       flexible="false"
       use_knot_distance="true"
       apply_no_radius="true"
       apply_with_radius="true"
       only_selected="false"
       hide_knots="false" /><linearGradient
       inkscape:collect="always"
       xlink:href="#linearGradient1"
       id="linearGradient2"
       x1="382.78497"
       y1="69.034081"
       x2="862.42517"
       y2="69.034081"
       gradientUnits="userSpaceOnUse" /><symbol
       id="g25"
       style="fill:#ffffff;fill-opacity:1"><g
         id="g25_transform"
         inkscape:label="Regal"
         transform="matrix(0.83464128,0,0,0.78149108,17.715611,3.477261)"><g
           inkscape:groupmode="layer"
           id="layer2"
           inkscape:label="Hintergrund"
           style="display:inline;fill:#ffffff;fill-opacity:1"
           transform="matrix(0.9584956,0,0,1.0236841,2.2936174,-1.1392317)"><path
             id="rect3"
             transform="matrix(0.07464182,0,0,0.99999994,0.14990652,-3.8162517e-8)"
             d="M 137.77623,0.16199829 H 1238.69 c 76.2383,0 137.6142,4.58121221 137.6142,10.27177571 v 82.174222 c 0,5.690564 -61.3759,10.271774 -137.6142,10.271774 H 137.77623 C 61.537944,102.87977 0.16199829,98.29856 0.16199829,92.607996 V 10.433774 C 0.16199829,4.7432105 61.537944,0.16199829 137.77623,0.16199829 Z"
             style="fill:#5f5f60;fill-opacity:1;stroke:none;stroke-width:0.765457;stroke-linejoin:round;stroke-dasharray:none;stroke-opacity:1"
             inkscape:label="Ordner Hintergrund" /></g><g
           id="g4"
           inkscape:label="Ordner1"
           transform="translate(2.6480694,2.8403849)"
           style="fill:#ffffff;fill-opacity:1"><path
             id="rect4"
             d="m 8.701016,6.9659281 h 23.618236 a 1.0870963,1.0870963 45 0 0 1.087097,1.0870963 V 89.307962 a 1.0870963,1.0870963 135 0 0 -1.087097,1.087097 H 8.701016 A 1.0870963,1.0870963 45 0 0 7.6139197,89.307962 V 8.0530244 A 1.0870963,1.0870963 135 0 0 8.701016,6.9659281 Z"
             style="fill:#ffffff;fill-opacity:1;stroke-width:0.221733;stroke-dasharray:none"
             inkscape:label="außen Rechteck" /><path
             id="path4"
             style="fill:#5f5f60;fill-opacity:1;stroke-width:1.07827"
             d="m 26.159616,79.092964 a 5.6494765,5.6494765 0 0 1 -5.605767,5.649308 5.6494765,5.6494765 0 0 1 -5.69251,-5.561891 5.6494765,5.6494765 0 0 1 5.517682,-5.735372 5.6494765,5.6494765 0 0 1 5.77789,5.473142"
             inkscape:label="Punkt" /><path
             style="baseline-shift:baseline;display:inline;overflow:visible;opacity:1;vector-effect:none;fill:#5f5f60;fill-opacity:1;enable-background:accumulate;stop-color:#000000;stop-opacity:1"
             d="m 11.261719,18.689453 c -1.7711869,0 -3.2167967,1.447564 -3.2167971,3.21875 v 30.259766 c -2e-7,1.771187 1.4456098,3.21875 3.2167971,3.21875 h 17.960937 c 1.771187,0 3.216797,-1.447563 3.216797,-3.21875 V 21.908203 c 0,-1.771186 -1.44561,-3.21875 -3.216797,-3.21875 z m 0,1 h 17.960937 c 1.230747,0 2.216797,0.988004 2.216797,2.21875 v 30.259766 c 0,1.230747 -0.98605,2.21875 -2.216797,2.21875 H 11.261719 c -1.230747,0 -2.2167973,-0.988003 -2.2167971,-2.21875 V 21.908203 c 3e-7,-1.230746 0.9860501,-2.21875 2.2167971,-2.21875 z"
             id="path2"
             transform="matrix(1,0,0,1.3515211,0.26813018,-14.434048)"
             inkscape:label="inneres Rechteck" /></g><g
           id="g5"
           inkscape:label="Ordner2"
           transform="translate(31.010744,2.8403849)"
           style="display:inline;fill:#ffffff;fill-opacity:1"><path
             id="rect5"
             d="m 8.701016,6.9659281 h 23.618236 a 1.0870963,1.0870963 45 0 0 1.087097,1.0870963 V 89.307962 a 1.0870963,1.0870963 135 0 0 -1.087097,1.087097 H 8.701016 A 1.0870963,1.0870963 45 0 0 7.6139197,89.307962 V 8.0530244 A 1.0870963,1.0870963 135 0 0 8.701016,6.9659281 Z"
             style="fill:#ffffff;fill-opacity:1;stroke-width:0.221733;stroke-dasharray:none"
             inkscape:label="außen Rechteck" /><path
             id="path5"
             style="fill:#5f5f60;fill-opacity:1;stroke-width:1.07827"
             d="m 26.159616,79.092964 a 5.6494765,5.6494765 0 0 1 -5.605767,5.649308 5.6494765,5.6494765 0 0 1 -5.69251,-5.561891 5.6494765,5.6494765 0 0 1 5.517682,-5.735372 5.6494765,5.6494765 0 0 1 5.77789,5.473142"
             inkscape:label="Punkt" /><path
             style="baseline-shift:baseline;display:inline;overflow:visible;opacity:1;vector-effect:none;fill:#5f5f60;fill-opacity:1;enable-background:accumulate;stop-color:#000000;stop-opacity:1"
             d="m 42.808594,15.849609 c -1.771187,0 -3.216797,1.44561 -3.216797,3.216797 v 30.261719 c 0,1.771187 1.44561,3.216797 3.216797,3.216797 h 17.960937 c 1.771186,-10e-7 3.216797,-1.445611 3.216797,-3.216797 V 19.066406 c 0,-1.771186 -1.44561,-3.216796 -3.216797,-3.216797 z m 0,1 h 17.960937 c 1.230747,10e-7 2.216797,0.986051 2.216797,2.216797 v 30.261719 c 0,1.230746 -0.986051,2.216797 -2.216797,2.216797 H 42.808594 c -1.230747,0 -2.216797,-0.98605 -2.216797,-2.216797 V 19.066406 c 0,-1.230747 0.98605,-2.216797 2.216797,-2.216797 z"
             id="inneres_Rechteck"
             transform="matrix(1,0,0,1.3515211,-31.278878,-10.595208)" /></g><g
           id="g4-2"
           inkscape:label="Ordner3"
           transform="translate(59.920206,2.8403849)"
           style="display:inline;fill:#ffffff;fill-opacity:1"><path
             id="rect4-6"
             d="m 8.701016,6.9659281 h 23.618236 a 1.0870963,1.0870963 45 0 0 1.087097,1.0870963 V 89.307962 a 1.0870963,1.0870963 135 0 0 -1.087097,1.087097 H 8.701016 A 1.0870963,1.0870963 45 0 0 7.6139197,89.307962 V 8.0530244 A 1.0870963,1.0870963 135 0 0 8.701016,6.9659281 Z"
             style="fill:#ffffff;fill-opacity:1;stroke-width:0.221733;stroke-dasharray:none"
             inkscape:label="außen Rechteck" /><path
             id="path4-1"
             style="fill:#5f5f60;fill-opacity:1;stroke-width:1.07827"
             d="m 26.159616,79.092964 a 5.6494765,5.6494765 0 0 1 -5.605767,5.649308 5.6494765,5.6494765 0 0 1 -5.69251,-5.561891 5.6494765,5.6494765 0 0 1 5.517682,-5.735372 5.6494765,5.6494765 0 0 1 5.77789,5.473142"
             inkscape:label="Punkt" /><path
             style="baseline-shift:baseline;display:inline;overflow:visible;opacity:1;vector-effect:none;fill:#5f5f60;fill-opacity:1;enable-background:accumulate;stop-color:#000000;stop-opacity:1"
             d="m 11.261719,18.689453 c -1.7711869,0 -3.2167967,1.447564 -3.2167971,3.21875 v 30.259766 c -2e-7,1.771187 1.4456098,3.21875 3.2167971,3.21875 h 17.960937 c 1.771187,0 3.216797,-1.447563 3.216797,-3.21875 V 21.908203 c 0,-1.771186 -1.44561,-3.21875 -3.216797,-3.21875 z m 0,1 h 17.960937 c 1.230747,0 2.216797,0.988004 2.216797,2.21875 v 30.259766 c 0,1.230747 -0.98605,2.21875 -2.216797,2.21875 H 11.261719 c -1.230747,0 -2.2167973,-0.988003 -2.2167971,-2.21875 V 21.908203 c 3e-7,-1.230746 0.9860501,-2.21875 2.2167971,-2.21875 z"
             id="path8"
             transform="matrix(1,0,0,1.3515211,0.2681296,-14.377104)"
             inkscape:label="inneres Rechteck" /></g></g></symbol></defs><g
     inkscape:label="Ebene 1"
     inkscape:groupmode="layer"
     id="layer1"
     transform="translate(-148.73115,-54.76216)"
     style="display:inline"><path
       d="m 239.34673,126.12916 h 1.41607 v -5.793 h 5.11255 V 119.104 h -5.11255 v -4.59762 h 7.79755 v -1.25055 h -9.21362 z m 13.25954,0.18391 c 2.62984,0 4.70796,-2.09652 4.70796,-4.78153 0,-2.685 -2.07812,-4.78153 -4.70796,-4.78153 -2.62984,0 -4.70796,2.09653 -4.70796,4.78153 0,2.68501 2.07812,4.78153 4.70796,4.78153 z m 0,-1.21378 c -1.87582,0 -3.36545,-1.56319 -3.36545,-3.56775 0,-2.00456 1.48963,-3.56775 3.36545,-3.56775 1.87583,0 3.36546,1.56319 3.36546,3.56775 0,2.00456 -1.48963,3.56775 -3.36546,3.56775 z m 10.86879,1.19538 c 1.32411,0 2.59305,-0.53333 3.56775,-1.47123 l -0.84596,-0.91953 c -0.79079,0.7724 -1.69193,1.1586 -2.68501,1.1586 -1.89422,0 -3.38385,-1.5448 -3.38385,-3.54936 0,-1.96778 1.47124,-3.53097 3.36546,-3.53097 0.99308,0 1.98617,0.42298 2.72179,1.19538 l 0.86435,-0.99309 c -0.95631,-0.91952 -2.26203,-1.45285 -3.60453,-1.45285 -2.62984,0 -4.68957,2.11492 -4.68957,4.78153 0,2.685 2.05973,4.78152 4.68957,4.78152 z m 8.69869,0.0184 c 1.19539,0 2.17008,-0.42299 2.88731,-1.25056 v 1.06665 h 1.36089 v -9.21362 h -1.36089 v 6.76769 c -0.55172,0.91952 -1.43446,1.43445 -2.53789,1.43445 -1.58157,0 -2.57466,-1.01148 -2.57466,-2.64822 v -5.55392 H 268.606 v 5.82978 c 0,2.1149 1.45285,3.56775 3.56775,3.56775 z m 9.50788,0 c 2.1149,0 3.73326,-1.21378 3.73326,-2.81375 0,-1.43446 -0.91952,-2.26202 -2.75857,-2.51949 l -1.59997,-0.22068 c -1.21377,-0.16552 -1.71031,-0.57011 -1.71031,-1.39768 0,-0.90114 0.86435,-1.52641 2.13329,-1.52641 1.01148,0 1.94939,0.33102 2.97926,1.02987 l 0.71723,-0.91953 c -1.14021,-0.82757 -2.28042,-1.21377 -3.62293,-1.21377 -2.02295,0 -3.45741,1.14021 -3.45741,2.68501 0,1.43446 0.88275,2.26202 2.7218,2.51949 l 1.59997,0.22068 c 1.17698,0.16552 1.71031,0.6069 1.71031,1.41607 0,0.9747 -1.02987,1.65515 -2.50111,1.65515 -1.08503,0 -2.15168,-0.44137 -2.99764,-1.23217 l -0.82757,0.88275 c 0.9747,0.91952 2.35397,1.43446 3.88039,1.43446 z m 13.49859,0 c 2.62983,0 4.70795,-2.09651 4.70795,-4.78153 0,-2.685 -2.07812,-4.78152 -4.70795,-4.78152 -2.62985,0 -4.70797,2.09652 -4.70797,4.78152 0,2.68502 2.07812,4.78153 4.70797,4.78153 z m 0,-1.21378 c -1.87583,0 -3.36546,-1.56319 -3.36546,-3.56775 0,-2.00456 1.48963,-3.56775 3.36546,-3.56775 1.87582,0 3.36545,1.56319 3.36545,3.56775 0,2.00456 -1.48963,3.56775 -3.36545,3.56775 z m 6.6022,1.02987 h 1.36089 v -6.78608 c 0.55172,-0.90114 1.43445,-1.41607 2.53789,-1.41607 1.58158,0 2.57466,1.01148 2.57466,2.64823 v 5.55392 h 1.3425 v -5.82975 c 0,-2.11491 -1.45284,-3.56776 -3.54936,-3.56776 -1.19538,0 -2.18846,0.42299 -2.90569,1.26895 v -1.08503 h -1.36089 z m 15.74223,0 h 1.32412 l 2.29881,-7.37457 2.28041,7.37457 h 1.30573 l 2.61144,-9.21362 h -1.28734 l -2.00456,7.35619 -2.28041,-7.35619 h -1.21378 l -2.2988,7.35619 -1.98617,-7.35619 h -1.34251 z m 11.23656,0 h 1.3609 v -6.78608 c 0.55171,-0.90114 1.43446,-1.41607 2.53788,-1.41607 1.58158,0 2.57467,1.01148 2.57467,2.64823 v 5.55392 h 1.3425 v -5.82975 c 0,-2.11491 -1.45284,-3.56776 -3.54936,-3.56776 -1.19538,0 -2.18847,0.42299 -2.90569,1.26895 v -5.05738 l -1.3609,0.31264 z m 13.00206,0.16552 c 1.15859,0 2.15168,-0.34943 2.97925,-1.06665 v 0.90113 h 1.32412 v -6.19759 c 0,-2.05973 -1.30573,-3.19994 -3.64132,-3.19994 -1.12182,0 -2.20685,0.27586 -3.53097,0.91952 l 0.51493,1.04826 c 1.10344,-0.57011 1.98617,-0.80918 2.88731,-0.80918 1.59997,0 2.44593,0.754 2.44593,2.22524 v 1.21378 c -0.79079,-0.40459 -1.7287,-0.62528 -2.70339,-0.62528 -2.26203,0 -3.6781,1.08504 -3.6781,2.81374 0,1.65514 1.37929,2.77697 3.40224,2.77697 z m -2.09652,-2.81375 c 0,-1.08503 0.93792,-1.78387 2.40916,-1.78387 1.06664,0 1.91261,0.22068 2.66661,0.73562 v 1.72869 c -0.73561,0.73563 -1.63675,1.06666 -2.74017,1.06666 -1.37929,0 -2.3356,-0.71723 -2.3356,-1.7471 z m 12.0274,2.83214 c 0.53332,0 1.1402,-0.0735 1.61836,-0.23908 v -1.19538 c -0.45977,0.1839 -0.82758,0.23907 -1.34251,0.23907 -1.01148,0 -1.41606,-0.38619 -1.41606,-1.37928 v -5.66427 h 2.77696 v -1.15859 h -2.77696 v -2.68501 l -1.34251,0.34941 v 2.3356 h -1.98617 v 1.15859 h 1.98617 v 6.01368 c 0,1.45285 0.88275,2.22526 2.48272,2.22526 z m 7.04355,-0.18391 h 1.3609 v -6.30793 c 0.47815,-1.23217 1.3425,-1.89422 2.48271,-1.89422 0.31263,0 0.62528,0.0552 0.9563,0.16551 v -1.25054 c -0.27585,-0.0919 -0.51493,-0.12874 -0.86435,-0.12874 -1.12182,0 -2.02295,0.55172 -2.57466,1.50802 v -1.30572 h -1.3609 z m 10.04121,0.16552 c 1.32411,0 2.40915,-0.36782 3.43902,-1.14022 l -0.84597,-0.90112 c -0.62527,0.53332 -1.58158,0.84595 -2.53788,0.84595 -1.82066,0 -3.25512,-1.3425 -3.45741,-3.16316 h 7.55848 v -0.42298 c 0,-2.64822 -1.91261,-4.74474 -4.35854,-4.74474 -2.53789,0 -4.54245,2.09652 -4.54245,4.74474 0,2.70341 2.07813,4.78153 4.74475,4.78153 z m -3.36546,-5.44358 c 0.25747,-1.69193 1.52641,-2.88731 3.12638,-2.88731 1.52641,0 2.79535,1.25056 3.03443,2.88731 z m 12.1377,5.44358 c 1.1586,0 2.15168,-0.34943 2.97926,-1.06665 v 0.90113 h 1.3241 v -6.19759 c 0,-2.05973 -1.30571,-3.19994 -3.64131,-3.19994 -1.12181,0 -2.20686,0.27586 -3.53097,0.91952 l 0.51494,1.04826 c 1.10342,-0.57011 1.98617,-0.80918 2.8873,-0.80918 1.59997,0 2.44594,0.754 2.44594,2.22524 v 1.21378 c -0.7908,-0.40459 -1.72871,-0.62528 -2.70341,-0.62528 -2.26202,0 -3.67809,1.08504 -3.67809,2.81374 0,1.65514 1.37929,2.77697 3.40224,2.77697 z m -2.09652,-2.81375 c 0,-1.08503 0.93791,-1.78387 2.40915,-1.78387 1.06665,0 1.91261,0.22068 2.66663,0.73562 v 1.72869 c -0.73563,0.73563 -1.63676,1.06666 -2.74019,1.06666 -1.37929,0 -2.33559,-0.71723 -2.33559,-1.7471 z m 8.68031,2.64823 h 1.36089 v -13.18597 l -1.36089,0.31265 z m 3.67811,0 h 1.3609 v -13.18597 l -1.3609,0.31265 z m 4.06431,3.93556 c 1.47124,0 2.35398,-0.71723 3.12638,-2.50111 l 4.59761,-10.64807 h -1.47123 l -3.21833,7.55848 -2.97926,-7.55848 h -1.50802 l 3.75166,9.19523 -0.55172,1.26894 c -0.42297,0.9747 -1.01148,1.43446 -1.83904,1.43446 -0.33103,0 -0.53332,-0.0184 -0.77241,-0.0735 v 1.23217 c 0.20231,0.0552 0.51494,0.0919 0.86436,0.0919 z m 12.94689,-3.93556 h 1.3609 v -6.85964 c 0.5701,-0.88275 1.36089,-1.34251 2.35397,-1.34251 1.45285,0 2.37238,1.01148 2.37238,2.64823 v 5.55392 h 1.3425 v -5.82975 c 0,-0.31264 -0.0368,-0.5885 -0.0919,-0.86435 0.5885,-0.99309 1.43446,-1.50802 2.44594,-1.50802 1.47123,0 2.39076,1.01148 2.39076,2.64823 v 5.55392 h 1.34251 v -5.82978 c 0,-2.11491 -1.37929,-3.56776 -3.38385,-3.56776 -1.34251,0 -2.40916,0.55172 -3.16317,1.67354 -0.5701,-1.02986 -1.61836,-1.67354 -2.90569,-1.67354 -1.10343,0 -2.00456,0.4046 -2.7034,1.19539 v -1.01147 h -1.36089 z m 18.7031,0.16552 c 1.1586,0 2.15169,-0.34943 2.97925,-1.06665 v 0.90113 h 1.32412 v -6.19759 c 0,-2.05973 -1.30573,-3.19994 -3.64131,-3.19994 -1.12182,0 -2.20686,0.27586 -3.53097,0.91952 l 0.51493,1.04826 c 1.10343,-0.57011 1.98618,-0.80918 2.8873,-0.80918 1.59998,0 2.44593,0.754 2.44593,2.22524 v 1.21378 c -0.79078,-0.40459 -1.7287,-0.62528 -2.70339,-0.62528 -2.26203,0 -3.67809,1.08504 -3.67809,2.81374 0,1.65514 1.37928,2.77697 3.40223,2.77697 z m -2.09651,-2.81375 c 0,-1.08503 0.93791,-1.78387 2.40915,-1.78387 1.06664,0 1.91261,0.22068 2.66661,0.73562 v 1.72869 c -0.73561,0.73563 -1.63675,1.06666 -2.74017,1.06666 -1.37929,0 -2.33559,-0.71723 -2.33559,-1.7471 z m 12.02738,2.83214 c 0.53332,0 1.14021,-0.0735 1.61836,-0.23908 v -1.19538 c -0.45976,0.1839 -0.82756,0.23907 -1.3425,0.23907 -1.01147,0 -1.41606,-0.38619 -1.41606,-1.37928 v -5.66427 h 2.77695 v -1.15859 h -2.77695 v -2.68501 l -1.34251,0.34941 v 2.3356 h -1.98617 v 1.15859 h 1.98617 v 6.01368 c 0,1.45285 0.88274,2.22526 2.48271,2.22526 z m 6.89643,0 c 0.53332,0 1.1402,-0.0735 1.61836,-0.23908 v -1.19538 c -0.45977,0.1839 -0.82757,0.23907 -1.3425,0.23907 -1.01148,0 -1.41607,-0.38619 -1.41607,-1.37928 v -5.66427 h 2.77696 v -1.15859 h -2.77696 v -2.68501 l -1.34251,0.34941 v 2.3356 h -1.98617 v 1.15859 h 1.98617 v 6.01368 c 0,1.45285 0.88275,2.22526 2.48272,2.22526 z m 7.22745,-0.0184 c 1.32411,0 2.40914,-0.36781 3.43901,-1.14021 l -0.84595,-0.90113 c -0.62529,0.53332 -1.58158,0.84596 -2.53789,0.84596 -1.82066,0 -3.25512,-1.34251 -3.45741,-3.16316 h 7.55848 v -0.42298 c 0,-2.64822 -1.91261,-4.74475 -4.35854,-4.74475 -2.53788,0 -4.54244,2.09653 -4.54244,4.74475 0,2.7034 2.07812,4.78152 4.74474,4.78152 z m -3.36546,-5.44357 c 0.25746,-1.69193 1.52641,-2.88731 3.12638,-2.88731 1.52641,0 2.79535,1.25055 3.03443,2.88731 z m 9.4159,5.27806 h 1.3609 v -6.30793 c 0.47815,-1.23217 1.3425,-1.89422 2.48271,-1.89422 0.31263,0 0.62528,0.0552 0.9563,0.16551 v -1.25054 c -0.27585,-0.0919 -0.51493,-0.12875 -0.86435,-0.12875 -1.12182,0 -2.02295,0.55172 -2.57466,1.50802 v -1.30571 h -1.3609 z m 9.21366,0.18391 c 2.1149,0 3.73326,-1.21378 3.73326,-2.81375 0,-1.43446 -0.91951,-2.26203 -2.75856,-2.51949 l -1.59997,-0.22069 c -1.21378,-0.16551 -1.71032,-0.57011 -1.71032,-1.39767 0,-0.90114 0.86435,-1.52641 2.1333,-1.52641 1.01148,0 1.94938,0.33102 2.97926,1.02987 l 0.71722,-0.91953 c -1.14021,-0.82757 -2.28042,-1.21378 -3.62292,-1.21378 -2.02295,0 -3.45741,1.14022 -3.45741,2.68502 0,1.43446 0.88275,2.26202 2.72179,2.51949 l 1.59997,0.22068 c 1.17699,0.16552 1.71032,0.60689 1.71032,1.41607 0,0.9747 -1.02987,1.65514 -2.50111,1.65514 -1.08503,0 -2.15168,-0.44137 -2.99764,-1.23216 l -0.82758,0.88275 c 0.9747,0.91952 2.35398,1.43446 3.88039,1.43446 z"
       id="text3"
       style="font-size:19.9301px;font-family:'Red Hat Display';-inkscape-font-specification:'Red Hat Display, Normal';fill:#5f5f60;fill-opacity:1;stroke-width:0.250779"
       aria-label="Focus on what really matters"
       inkscape:label="Untertext" /><text
       xml:space="preserve"
       transform="matrix(0.4808831,0,0,0.4808831,50.456061,50.662646)"
       id="text1"
       style="font-style:normal;font-variant:normal;font-weight:798;font-stretch:normal;font-size:120px;font-family:'Red Hat Display';-inkscape-font-specification:'Red Hat Display, weight=798';font-variant-ligatures:normal;font-variant-caps:normal;font-variant-numeric:normal;font-variant-east-asian:normal;writing-mode:lr-tb;direction:ltr;white-space:pre;shape-inside:url(#rect2);display:inline;fill:#5f5f60;fill-opacity:1"
       inkscape:label="Haupttext"><tspan
         x="380.625"
         y="112.23404"
         id="tspan2">TeachBx</tspan></text><use
       x="0"
       y="0"
       xlink:href="#use1"
       id="use4"
       transform="matrix(0.29479102,0,0,0.29479102,197.15179,63.975914)"
       inkscape:label="TextLogoIcon" /><use
       xlink:href="#g25"
       id="use1"
       inkscape:label="LogoIconMaster"
       transform="matrix(3.3866667,0,0,3.3866667,-231.17317,-40.455289)"
       style="display:inline" /></g></svg>
