<svg xmlns="http://www.w3.org/2000/svg" xmlns:xlink="http://www.w3.org/1999/xlink" width="1024" height="1024" viewBox="0 0 278.297 278.297"><g style="display:inline"><g style="display:inline;fill:#fff;fill-opacity:1"><path d="M-49.873-93.58h82.175A10.25 10.25 0 0 1 42.573-83.31v82.175A10.25 10.25 0 0 1 32.302 9.137h-82.175A10.25 10.25 0 0 1-60.144-1.134V-83.31A10.25 10.25 0 0 1-49.873-93.58" style="display:inline;fill:#34618e;fill-opacity:1;stroke:none;stroke-width:.209128;stroke-linejoin:round;stroke-dasharray:none;stroke-opacity:1" transform="translate(162.951 253.54)scale(2.70933)"/><g transform="matrix(2.82665 0 0 2.64665 191.484 256.555)"><g id="a" style="fill:#fff;fill-opacity:1"><path d="M8.7 6.966a1.087 1.087 0 0 1-1.086 1.087v81.255a1.087 1.087 0 0 1 1.087 1.087h23.618a1.087 1.087 0 0 1 1.087-1.087V8.053a1.087 1.087 0 0 1-1.087-1.087Zm2.83 3.859h17.96c1.772 0 3.218 1.956 3.218 4.35v40.897c0 2.394-1.446 4.35-3.217 4.35H11.53c-1.772 0-3.217-1.956-3.217-4.35V15.175c0-2.394 1.445-4.35 3.217-4.35m0 1.352c-1.231 0-2.217 1.335-2.217 2.998v40.897c0 1.664.986 2.999 2.217 2.999h17.96c1.232 0 2.218-1.335 2.218-2.999V15.175c0-1.663-.986-2.998-2.217-2.998zm8.88 61.265q.256-.01.513.003c.91.047 1.81.324 2.602.87a5.66 5.66 0 0 1 2.632 4.603l.003.175c.046 2.59-1.921 5.025-4.463 5.524-3.725.942-7.61-2.738-6.745-6.535.375-2.683 2.894-4.536 5.458-4.64" style="fill:#fff;fill-opacity:1;stroke-width:.221733;stroke-dasharray:none" transform="translate(-66.698 -93.041)"/></g><use xlink:href="#a" id="b" x="0" y="0" transform="translate(27.672)"/><use xlink:href="#b" transform="translate(27.672)"/></g></g></g></svg>