<svg xmlns="http://www.w3.org/2000/svg" xmlns:xlink="http://www.w3.org/1999/xlink" width="1273.43" height="302.362" viewBox="0 0 346.085 82.174"><defs><symbol id="e"><use xlink:href="#a" transform="matrix(-.29528 0 0 .29528 -50.75 -8.296)"/></symbol><path id="b" d="M380.626 4.898h618.517v225.297H380.626z"/></defs><g style="display:inline" transform="translate(181.197 -140.213)"><path d="M-88.033 213.291h1.535v-6.278h5.54v-1.335h-5.54v-4.983h8.45v-1.355h-9.985zm14.37.2c2.85 0 5.102-2.273 5.102-5.182s-2.252-5.182-5.102-5.182-5.102 2.272-5.102 5.182 2.252 5.181 5.102 5.181m0-1.316c-2.033 0-3.648-1.694-3.648-3.866s1.615-3.867 3.648-3.867 3.647 1.694 3.647 3.867-1.614 3.866-3.647 3.866m11.778 1.295c1.435 0 2.81-.578 3.867-1.594l-.917-.996c-.857.837-1.834 1.255-2.91 1.255-2.053 0-3.667-1.674-3.667-3.846 0-2.133 1.595-3.827 3.647-3.827 1.077 0 2.153.458 2.95 1.295l.937-1.076a5.67 5.67 0 0 0-3.907-1.574c-2.85 0-5.082 2.292-5.082 5.182 0 2.91 2.232 5.181 5.082 5.181m9.427.02c1.296 0 2.352-.458 3.13-1.355v1.156h1.474v-9.985h-1.475v7.334c-.598.997-1.554 1.555-2.75 1.555-1.714 0-2.79-1.096-2.79-2.87v-6.019h-1.455v6.318c0 2.292 1.574 3.866 3.866 3.866m10.304 0c2.292 0 4.046-1.315 4.046-3.049 0-1.555-.997-2.451-2.99-2.73l-1.733-.24c-1.316-.179-1.854-.617-1.854-1.514 0-.977.937-1.654 2.312-1.654 1.096 0 2.113.358 3.229 1.116l.777-.997c-1.236-.897-2.471-1.315-3.926-1.315-2.193 0-3.747 1.235-3.747 2.91 0 1.554.956 2.45 2.95 2.73l1.733.24c1.276.178 1.854.657 1.854 1.534 0 1.056-1.116 1.793-2.71 1.793-1.176 0-2.332-.478-3.25-1.335l-.896.957c1.056.996 2.551 1.554 4.205 1.554m14.629 0c2.85 0 5.102-2.272 5.102-5.182s-2.252-5.181-5.102-5.181-5.102 2.272-5.102 5.181 2.252 5.182 5.102 5.182m0-1.315c-2.033 0-3.647-1.694-3.647-3.867s1.614-3.866 3.647-3.866 3.647 1.694 3.647 3.866-1.614 3.867-3.647 3.867m7.155 1.116h1.475v-7.354c.598-.977 1.554-1.535 2.75-1.535 1.714 0 2.79 1.096 2.79 2.87v6.019h1.455v-6.318c0-2.292-1.574-3.866-3.846-3.866-1.296 0-2.372.458-3.15 1.375v-1.176h-1.474zm17.06 0h1.435l2.491-7.992 2.472 7.992h1.415l2.83-9.985H5.938l-2.173 7.972-2.471-7.972H-.022l-2.49 7.972-2.153-7.972H-6.12zm12.177 0h1.475v-7.354c.598-.977 1.555-1.535 2.75-1.535 1.714 0 2.79 1.096 2.79 2.87v6.019h1.456v-6.318c0-2.292-1.575-3.866-3.847-3.866-1.295 0-2.372.458-3.149 1.375v-5.48l-1.475.338zm14.09.18c1.256 0 2.333-.38 3.23-1.157v.977h1.434v-6.716c0-2.233-1.415-3.468-3.946-3.468-1.215 0-2.391.299-3.826.996l.558 1.136c1.196-.618 2.152-.877 3.129-.877 1.734 0 2.65.817 2.65 2.412v1.315c-.857-.438-1.873-.677-2.93-.677-2.45 0-3.985 1.176-3.985 3.049 0 1.794 1.494 3.01 3.687 3.01m-2.271-3.05c0-1.176 1.016-1.933 2.61-1.933 1.157 0 2.073.239 2.89.797v1.874c-.797.797-1.773 1.155-2.97 1.155-1.494 0-2.53-.777-2.53-1.893m13.034 3.07c.578 0 1.236-.08 1.754-.26v-1.295c-.498.2-.897.259-1.455.259-1.096 0-1.535-.419-1.535-1.495v-6.138h3.01v-1.256h-3.01v-2.91l-1.454.379v2.531h-2.153v1.256h2.153v6.517c0 1.574.956 2.411 2.69 2.411m7.633-.2h1.475v-6.836c.518-1.335 1.455-2.053 2.69-2.053.34 0 .678.06 1.037.18v-1.356c-.299-.1-.558-.14-.937-.14-1.215 0-2.192.599-2.79 1.635v-1.415h-1.475zm10.882.18c1.435 0 2.611-.4 3.727-1.236l-.917-.977c-.677.578-1.714.917-2.75.917-1.973 0-3.528-1.455-3.747-3.428h8.191v-.458c0-2.87-2.072-5.142-4.723-5.142-2.75 0-4.923 2.272-4.923 5.142 0 2.93 2.252 5.181 5.142 5.181m-3.647-5.9c.279-1.833 1.654-3.129 3.388-3.129 1.654 0 3.03 1.355 3.289 3.13zm13.154 5.9c1.255 0 2.332-.38 3.228-1.157v.977h1.435v-6.716c0-2.233-1.415-3.468-3.946-3.468-1.215 0-2.391.299-3.826.996l.558 1.136c1.196-.618 2.152-.877 3.129-.877 1.734 0 2.65.817 2.65 2.412v1.315c-.857-.438-1.873-.677-2.93-.677-2.45 0-3.985 1.176-3.985 3.049 0 1.794 1.494 3.01 3.687 3.01m-2.272-3.05c0-1.176 1.016-1.933 2.61-1.933 1.157 0 2.073.239 2.89.797v1.874c-.797.797-1.773 1.155-2.97 1.155-1.494 0-2.53-.777-2.53-1.893m9.407 2.87h1.475v-14.29l-1.475.339zm3.986 0h1.475v-14.29l-1.475.339zm4.404 4.265c1.595 0 2.551-.777 3.389-2.71l4.982-11.54h-1.594l-3.488 8.191-3.229-8.191h-1.634l4.066 9.965-.598 1.375c-.459 1.057-1.096 1.555-1.993 1.555-.359 0-.578-.02-.837-.08v1.335c.219.06.558.1.936.1m14.031-4.265h1.475v-7.434c.618-.957 1.475-1.455 2.551-1.455 1.575 0 2.571 1.096 2.571 2.87v6.019h1.455v-6.318c0-.339-.04-.638-.1-.937.638-1.076 1.555-1.634 2.651-1.634 1.594 0 2.591 1.096 2.591 2.87v6.019h1.455v-6.318c0-2.292-1.495-3.866-3.667-3.866-1.455 0-2.611.598-3.428 1.813-.618-1.116-1.754-1.813-3.15-1.813-1.195 0-2.172.438-2.929 1.295v-1.096h-1.475zm20.27.18c1.255 0 2.33-.38 3.228-1.157v.977h1.435v-6.716c0-2.233-1.415-3.468-3.946-3.468-1.216 0-2.392.299-3.827.996l.558 1.136c1.196-.618 2.152-.877 3.13-.877 1.733 0 2.65.817 2.65 2.412v1.315c-.857-.438-1.874-.677-2.93-.677-2.451 0-3.986 1.176-3.986 3.049 0 1.794 1.495 3.01 3.687 3.01m-2.273-3.05c0-1.176 1.016-1.933 2.61-1.933 1.157 0 2.074.239 2.89.797v1.874c-.796.797-1.773 1.155-2.969 1.155-1.495 0-2.53-.777-2.53-1.893m13.034 3.07c.578 0 1.236-.08 1.754-.26v-1.295c-.498.2-.897.259-1.455.259-1.096 0-1.534-.419-1.534-1.495v-6.138h3.01v-1.256h-3.01v-2.91l-1.455.379v2.531h-2.153v1.256h2.153v6.517c0 1.574.956 2.411 2.69 2.411m7.474 0c.578 0 1.236-.08 1.754-.26v-1.295c-.498.2-.897.259-1.455.259-1.096 0-1.535-.419-1.535-1.495v-6.138h3.01v-1.256h-3.01v-2.91l-1.454.379v2.531h-2.153v1.256h2.153v6.517c0 1.574.956 2.411 2.69 2.411m7.833-.02c1.435 0 2.61-.4 3.727-1.236l-.917-.977c-.678.578-1.714.917-2.75.917-1.974 0-3.528-1.455-3.747-3.428h8.19v-.458c0-2.87-2.072-5.142-4.723-5.142-2.75 0-4.922 2.272-4.922 5.142 0 2.93 2.252 5.181 5.142 5.181m-3.648-5.9c.28-1.833 1.655-3.129 3.389-3.129 1.654 0 3.029 1.355 3.288 3.13zm10.205 5.72h1.474v-6.836c.519-1.335 1.455-2.053 2.691-2.053.339 0 .678.06 1.036.18v-1.356c-.299-.1-.558-.14-.936-.14-1.216 0-2.193.599-2.79 1.635v-1.415h-1.475zm9.985.2c2.292 0 4.045-1.316 4.045-3.05 0-1.554-.996-2.451-2.989-2.73l-1.734-.24c-1.315-.179-1.853-.617-1.853-1.514 0-.977.936-1.654 2.311-1.654 1.097 0 2.113.358 3.23 1.116l.776-.997c-1.235-.897-2.47-1.315-3.926-1.315-2.192 0-3.747 1.235-3.747 2.91 0 1.554.957 2.451 2.95 2.73l1.734.24c1.275.179 1.853.657 1.853 1.534 0 1.056-1.116 1.793-2.71 1.793-1.176 0-2.332-.478-3.249-1.335l-.897.957c1.057.996 2.551 1.554 4.206 1.554" aria-label="Focus on what really matters" style="font-size:19.9301px;font-family:&quot;Red Hat Display&quot;;-inkscape-font-specification:&quot;Red Hat Display, Normal&quot;;fill:#1a629b;fill-opacity:1;stroke-width:.271774"/><g aria-label="TeachBx" style="font-size:120px;font-family:&quot;Red Hat Display&quot;;-inkscape-font-specification:&quot;Red Hat Display, weight=798&quot;;white-space:pre;shape-inside:url(#b);display:inline;fill:#003257" transform="translate(-305.523 128.433)scale(.54545)"><path d="M380.273 23.59h74.004v9.96h-31.054v77.52h-11.895V33.55h-31.055z"/><path d="M500.977 75.563v5.273h-49.57q.702 11.133 6.679 16.992 6.035 5.8 16.758 5.8 6.21 0 12.011-1.523 5.86-1.523 11.602-4.57v10.195q-5.8 2.461-11.894 3.75t-12.364 1.29q-15.703 0-24.902-9.141-9.14-9.14-9.14-24.727 0-16.113 8.671-25.547 8.73-9.492 23.496-9.492 13.242 0 20.918 8.555 7.735 8.496 7.735 23.145m-10.782-3.165q-.117-8.847-4.98-14.12-4.805-5.274-12.774-5.274-9.023 0-14.472 5.098-5.39 5.097-6.211 14.355zM548.496 78.082q-13.066 0-18.105 2.988-5.04 2.989-5.04 10.196 0 5.742 3.75 9.14 3.81 3.34 10.313 3.34 8.965 0 14.356-6.328 5.449-6.387 5.449-16.934v-2.402ZM570 73.629v37.441h-10.781v-9.96q-3.692 5.976-9.2 8.847-5.507 2.813-13.476 2.813-10.078 0-16.055-5.625-5.918-5.684-5.918-15.176 0-11.074 7.383-16.7 7.442-5.624 22.149-5.624h15.117V68.59q0-7.442-4.922-11.485-4.863-4.101-13.711-4.101-5.625 0-10.957 1.348-5.332 1.347-10.254 4.043v-9.961q5.918-2.286 11.484-3.399 5.567-1.172 10.84-1.172 14.239 0 21.27 7.383T570 73.63M639.434 47.965v10.078q-4.57-2.52-9.2-3.75-4.57-1.29-9.257-1.29-10.489 0-16.29 6.68-5.8 6.622-5.8 18.633 0 12.012 5.8 18.692 5.801 6.62 16.29 6.62 4.687 0 9.257-1.23 4.63-1.289 9.2-3.808v9.96q-4.512 2.11-9.375 3.165-4.805 1.055-10.254 1.055-14.825 0-23.555-9.317t-8.73-25.137q0-16.054 8.789-25.253 8.847-9.2 24.199-9.2 4.98 0 9.726 1.055 4.746.996 9.2 3.047M712.734 71.46v39.61h-10.78V71.813q0-9.317-3.634-13.946-3.632-4.629-10.898-4.629-8.73 0-13.77 5.567-5.039 5.566-5.039 15.175v37.09h-10.84V19.898h10.84v35.743q3.867-5.918 9.082-8.848 5.274-2.93 12.13-2.93 11.308 0 17.109 7.032 5.8 6.972 5.8 20.566M746.543 69.293v32.05h18.984q9.551 0 14.121-3.925 4.63-3.984 4.63-12.129 0-8.203-4.63-12.07-4.57-3.926-14.12-3.926zm0-35.977v26.368h17.52q8.671 0 12.89-3.223 4.277-3.281 4.277-9.961 0-6.621-4.277-9.902-4.219-3.282-12.89-3.282zm-11.836-9.726h30.234q13.536 0 20.86 5.625t7.324 15.996q0 8.027-3.75 12.773t-11.016 5.918q8.73 1.875 13.536 7.852 4.863 5.918 4.863 14.824 0 11.719-7.969 18.106-7.969 6.386-22.676 6.386h-31.406zM871.113 45.445l-23.73 31.934 24.96 33.691H859.63l-19.102-25.78-19.101 25.78H808.71l25.488-34.336-23.32-31.289h12.715l17.402 23.38 17.402-23.38z"/></g><g id="a" style="display:inline;fill:#fff;fill-opacity:1"><path d="M-49.873-93.58h82.175A10.25 10.25 0 0 1 42.573-83.31v82.175A10.25 10.25 0 0 1 32.302 9.137h-82.175A10.25 10.25 0 0 1-60.144-1.134V-83.31A10.25 10.25 0 0 1-49.873-93.58" style="display:inline;fill:#34618e;fill-opacity:1;stroke:none;stroke-width:.209128;stroke-linejoin:round;stroke-dasharray:none;stroke-opacity:1" transform="translate(-354.135 290.837)scale(2.70933)"/><g transform="matrix(2.82665 0 0 2.64665 -325.602 293.852)"><g id="c" style="fill:#fff;fill-opacity:1"><path d="M8.7 6.966a1.087 1.087 0 0 1-1.086 1.087v81.255a1.087 1.087 0 0 1 1.087 1.087h23.618a1.087 1.087 0 0 1 1.087-1.087V8.053a1.087 1.087 0 0 1-1.087-1.087Zm2.83 3.859h17.96c1.772 0 3.218 1.956 3.218 4.35v40.897c0 2.394-1.446 4.35-3.217 4.35H11.53c-1.772 0-3.217-1.956-3.217-4.35V15.175c0-2.394 1.445-4.35 3.217-4.35m0 1.352c-1.231 0-2.217 1.335-2.217 2.998v40.897c0 1.664.986 2.999 2.217 2.999h17.96c1.232 0 2.218-1.335 2.218-2.999V15.175c0-1.663-.986-2.998-2.217-2.998zm8.88 61.265q.256-.01.513.003c.91.047 1.81.324 2.602.87a5.66 5.66 0 0 1 2.632 4.603l.003.175c.046 2.59-1.921 5.025-4.463 5.524-3.725.942-7.61-2.738-6.745-6.535.375-2.683 2.894-4.536 5.458-4.64" style="fill:#fff;fill-opacity:1;stroke-width:.221733;stroke-dasharray:none" transform="translate(-66.698 -93.041)"/></g><use xlink:href="#c" id="d" x="0" y="0" transform="translate(27.672)"/><use xlink:href="#d" transform="translate(27.672)"/></g></g><use xlink:href="#e" style="stroke:#fff" transform="translate(-200.957 137.497)"/></g></svg>