<?xml version="1.0" encoding="UTF-8" standalone="no"?>
<!-- Created with Inkscape (http://www.inkscape.org/) -->

<svg
   width="377.95276"
   height="377.95276"
   viewBox="0 0 102.71776 102.71776"
   version="1.1"
   id="svg1"
   xmlns="http://www.w3.org/2000/svg"
   xmlns:svg="http://www.w3.org/2000/svg">
  <defs
     id="defs1" />
  <g
     id="layer2"
     style="display:inline">
    <path
       style="fill:#1b1e2e;fill-opacity:0.705854;stroke:none;stroke-width:0.765457;stroke-linejoin:round;stroke-dasharray:none;stroke-opacity:1"
       id="rect3"
       width="1376.1422"
       height="102.71777"
       x="0.16199829"
       y="0.16199829"
       d="M 137.77623,0.16199829 H 1238.69 c 76.2383,0 137.6142,4.58121221 137.6142,10.27177571 v 82.174222 c 0,5.690564 -61.3759,10.271774 -137.6142,10.271774 H 137.77623 C 61.537944,102.87977 0.16199829,98.29856 0.16199829,92.607996 V 10.433774 C 0.16199829,4.7432105 61.537944,0.16199829 137.77623,0.16199829 Z"
       transform="matrix(0.07464182,0,0,0.99999994,0.14990652,-3.8162517e-8)"
       rx="137.61423"
       ry="10.271776" />
  </g>
  <g
     id="layer1"
     transform="translate(-0.16199829,-0.16199829)"
     style="display:inline">
    <g
       id="g25"
       transform="matrix(1.0433016,0,0,0.97686385,-2.2309364,1.2748726)"
       style="fill:#ffffff;fill-opacity:1">
      <g
         id="g4"
         transform="translate(2.6480694,2.8403849)"
         style="fill:#ffffff;fill-opacity:1">
        <path
           style="fill:#ffffff;fill-opacity:1;stroke-width:0.221733;stroke-dasharray:none"
           id="rect4"
           width="25.792429"
           height="83.429131"
           x="7.6139197"
           y="6.9659281"
           d="m 8.701016,6.9659281 h 23.618236 a 1.0870963,1.0870963 45 0 0 1.087097,1.0870963 V 89.307962 a 1.0870963,1.0870963 135 0 0 -1.087097,1.087097 H 8.701016 A 1.0870963,1.0870963 45 0 0 7.6139197,89.307962 V 8.0530244 A 1.0870963,1.0870963 135 0 0 8.701016,6.9659281 Z" />
        <path
           style="fill:#1b1e2d;fill-opacity:0.705882;stroke:none;stroke-width:1.07827;stroke-dasharray:none;stroke-opacity:1"
           id="path4"
           d="m 26.159616,79.092964 a 5.6494765,5.6494765 0 0 1 -5.605767,5.649308 5.6494765,5.6494765 0 0 1 -5.69251,-5.561891 5.6494765,5.6494765 0 0 1 5.517682,-5.735372 5.6494765,5.6494765 0 0 1 5.77789,5.473142" />
        <path
           style="display:inline;fill:#000000;fill-opacity:0;stroke:#1b1e2d;stroke-opacity:0.705882"
           id="rect1"
           width="23.395773"
           height="35.696537"
           x="8.544116"
           y="19.189669"
           transform="matrix(1,0,0,1.3515211,0.26813018,-14.434048)"
           d="m 11.261857,19.189669 h 17.960291 a 2.7177407,2.7177407 45 0 1 2.717741,2.71774 v 30.261056 a 2.7177407,2.7177407 135 0 1 -2.717741,2.717741 H 11.261857 A 2.7177407,2.7177407 45 0 1 8.544116,52.168465 V 21.907409 a 2.7177407,2.7177407 135 0 1 2.717741,-2.71774 z" />
      </g>
      <g
         id="g5"
         transform="translate(31.010744,2.8403849)"
         style="display:inline;fill:#ffffff;fill-opacity:1">
        <path
           style="fill:#ffffff;fill-opacity:1;stroke-width:0.221733;stroke-dasharray:none"
           id="rect5"
           width="25.792429"
           height="83.429131"
           x="7.6139197"
           y="6.9659281"
           d="m 8.701016,6.9659281 h 23.618236 a 1.0870963,1.0870963 45 0 0 1.087097,1.0870963 V 89.307962 a 1.0870963,1.0870963 135 0 0 -1.087097,1.087097 H 8.701016 A 1.0870963,1.0870963 45 0 0 7.6139197,89.307962 V 8.0530244 A 1.0870963,1.0870963 135 0 0 8.701016,6.9659281 Z" />
        <path
           style="fill:#1b1e2d;fill-opacity:0.705882;stroke:none;stroke-width:1.07827;stroke-dasharray:none;stroke-opacity:1"
           id="path5"
           d="m 26.159616,79.092964 a 5.6494765,5.6494765 0 0 1 -5.605767,5.649308 5.6494765,5.6494765 0 0 1 -5.69251,-5.561891 5.6494765,5.6494765 0 0 1 5.517682,-5.735372 5.6494765,5.6494765 0 0 1 5.77789,5.473142" />
        <path
           style="display:inline;fill:#000000;fill-opacity:0;stroke:#1b1e2d;stroke-opacity:0.705882"
           id="rect1-9"
           width="23.395773"
           height="35.696537"
           x="40.091125"
           y="16.349283"
           transform="matrix(1,0,0,1.3515211,-31.278878,-10.595208)"
           d="m 42.808866,16.349283 h 17.960292 a 2.7177407,2.7177407 45 0 1 2.71774,2.717741 V 49.32808 a 2.7177407,2.7177407 135 0 1 -2.71774,2.71774 l -17.960292,0 A 2.7177407,2.7177407 45 0 1 40.091125,49.32808 V 19.067024 a 2.7177407,2.7177407 135 0 1 2.717741,-2.717741 z" />
      </g>
      <g
         id="g4-2"
         transform="translate(59.920206,2.8403849)"
         style="display:inline;fill:#ffffff;fill-opacity:1">
        <path
           style="fill:#ffffff;fill-opacity:1;stroke-width:0.221733;stroke-dasharray:none"
           id="rect4-6"
           width="25.792429"
           height="83.429131"
           x="7.6139197"
           y="6.9659281"
           d="m 8.701016,6.9659281 h 23.618236 a 1.0870963,1.0870963 45 0 0 1.087097,1.0870963 V 89.307962 a 1.0870963,1.0870963 135 0 0 -1.087097,1.087097 H 8.701016 A 1.0870963,1.0870963 45 0 0 7.6139197,89.307962 V 8.0530244 A 1.0870963,1.0870963 135 0 0 8.701016,6.9659281 Z" />
        <path
           style="fill:#1b1e2d;fill-opacity:0.705882;stroke:none;stroke-width:1.07827;stroke-dasharray:none;stroke-opacity:1"
           id="path4-1"
           d="m 26.159616,79.092964 a 5.6494765,5.6494765 0 0 1 -5.605767,5.649308 5.6494765,5.6494765 0 0 1 -5.69251,-5.561891 5.6494765,5.6494765 0 0 1 5.517682,-5.735372 5.6494765,5.6494765 0 0 1 5.77789,5.473142" />
        <path
           style="display:inline;fill:#000000;fill-opacity:0;stroke:#1b1e2d;stroke-opacity:0.705882"
           id="rect1-8"
           width="23.395773"
           height="35.696537"
           x="8.544116"
           y="19.189669"
           transform="matrix(1,0,0,1.3515211,0.26813018,-14.377104)"
           d="m 11.261857,19.189669 h 17.960291 a 2.7177407,2.7177407 45 0 1 2.717741,2.71774 v 30.261056 a 2.7177407,2.7177407 135 0 1 -2.717741,2.717741 H 11.261857 A 2.7177407,2.7177407 45 0 1 8.544116,52.168465 V 21.907409 a 2.7177407,2.7177407 135 0 1 2.717741,-2.71774 z" />
      </g>
      <rect
         style="display:none;fill:#ffffff;fill-opacity:1;stroke:none;stroke-width:0.420058;stroke-linecap:butt;stroke-linejoin:round;stroke-dasharray:none;stroke-opacity:1"
         id="rect25"
         width="92.34568"
         height="4.2454429"
         x="5.3480396"
         y="93.235443" />
    </g>
  </g>
</svg>
