<?xml version="1.0" encoding="UTF-8" standalone="no"?>
<!-- Created with Inkscape (http://www.inkscape.org/) -->

<svg
   width="1023.9999"
   height="1024"
   viewBox="0 0 278.29663 278.29666"
   version="1.1"
   id="svg1"
   xmlns:xlink="http://www.w3.org/1999/xlink"
   xmlns="http://www.w3.org/2000/svg"
   xmlns:svg="http://www.w3.org/2000/svg">
  <defs
     id="defs1" />
  <g
     id="layer1"
     transform="translate(517.08615,-37.296903)"
     style="display:inline">
    <g
       id="g5"
       transform="matrix(2.8266518,0,0,2.6466498,-360.61809,293.85221)"
       style="display:inline;fill:#ffffff;fill-opacity:1">
      <path
         id="rect3"
         d="m -49.872678,-93.580276 h 82.174207 c 5.690566,0 10.271774,4.581212 10.271774,10.271774 v 82.1742173 c 0,5.690564 -4.581208,10.27177 -10.271774,10.27177 h -82.174207 c -5.690565,0 -10.271777,-4.581206 -10.271777,-10.27177 V -83.308502 c 0,-5.690562 4.581212,-10.271774 10.271777,-10.271774 z"
         style="display:inline;fill:#34618e;fill-opacity:1;stroke:none;stroke-width:0.209128;stroke-linejoin:round;stroke-dasharray:none;stroke-opacity:1"
         transform="matrix(0.95849562,0,0,1.0236841,2.2936329,-1.1392301)" />
      <g
         id="g3"
         transform="translate(12.387758)">
        <g
           id="g4"
           transform="translate(-66.697645,-93.041096)"
           style="fill:#ffffff;fill-opacity:1">
          <path
             id="rect4"
             style="fill:#ffffff;fill-opacity:1;stroke-width:0.221733;stroke-dasharray:none"
             d="M 8.7008362,6.9661715 A 1.0870963,1.0870963 0 0 1 7.6139595,8.0529325 V 89.30801 a 1.0870963,1.0870963 0 0 1 1.0868767,1.086761 H 32.31894 A 1.0870963,1.0870963 0 0 1 33.406452,89.30801 V 8.0529325 A 1.0870963,1.0870963 0 0 1 32.31894,6.9661715 Z m 2.8288048,3.8586805 h 17.96113 c 1.771187,0 3.216748,1.956645 3.216748,4.35044 v 40.896852 c 0,2.393796 -1.445561,4.35044 -3.216748,4.35044 h -17.96113 c -1.7711873,0 -3.2167481,-1.956644 -3.2167479,-4.35044 V 15.175292 c 4e-7,-2.393795 1.445561,-4.35044 3.2167479,-4.35044 z m 0,1.351659 c -1.230747,0 -2.2163632,1.335402 -2.2163635,2.998781 v 40.896852 c -2e-7,1.66338 0.9856165,2.998781 2.2163635,2.998781 h 17.96113 c 1.230747,0 2.216999,-1.335401 2.216999,-2.998781 V 15.175292 c 0,-1.663379 -0.986252,-2.998781 -2.216999,-2.998781 z m 8.880717,61.265469 c 0.170968,-0.0069 0.341838,-0.0062 0.512594,0.0027 0.910697,0.04748 1.809585,0.323875 2.602399,0.870767 1.569733,0.975307 2.587376,2.754914 2.631653,4.602433 l 0.0025,0.17524 c 0.04692,2.58986 -1.920674,5.025367 -4.462618,5.523462 -3.724482,0.942384 -7.610663,-2.737235 -6.745122,-6.534829 0.375288,-2.682717 2.894037,-4.535975 5.45855,-4.63979 z" />
        </g>
        <use
           x="0"
           y="0"
           xlink:href="#g4"
           id="use2"
           transform="translate(27.672434)" />
        <use
           x="0"
           y="0"
           xlink:href="#use2"
           id="use3"
           transform="translate(27.672435)" />
      </g>
    </g>
  </g>
</svg>
